/* XPM */
static char *result[] = {
/* columns rows colors chars-per-pixel */
"21 21 8 1 ",
"  c #1A7A3E",
". c #FA6A0A",
"X c #14A02E",
"o c #59C135",
"O c #F9A31B",
"+ c #FFD541",
"@ c #FFFC40",
"# c None",
/* pixels */
"#####################",
"#####################",
"#####################",
"#####################",
"#####################",
"#####################",
"#####################",
"#########@###########",
"#########@###########",
"#######OO+OO#########",
"#####@@++.++@@#######",
"#####@@++.++@@#######",
"#######OO+OO##ooooo##",
"#######OO+OO##ooooo##",
"##ooooo##@##XX   ####",
"####   XX#XX  #######",
"####   XX#XX  #######",
"#######  X  #########",
"#######  X  #########",
"#####################",
"#####################"
};
