/* XPM */
static char *result[] = {
/* columns rows colors chars-per-pixel */
"32 32 4 1 ",
"  c #A08662",
". c #796755",
"X c #5A4E44",
"o c white",
/* pixels */
"                                ",
"                                ",
"                                ",
"                                ",
"                    .X..        ",
"                    X.X.        ",
"                   ...          ",
"                                ",
"         ....                   ",
"      ...XX.                    ",
"       ..X..                    ",
"                                ",
"                                ",
"                                ",
"                                ",
".                              .",
".       XXX                    .",
"        .X. X                   ",
"            .         .XXX      ",
"                      ....      ",
"                                ",
"                                ",
"          ..                    ",
"           ..                   ",
"                                ",
"                                ",
"                                ",
"     .             .            ",
"                  ...      ..   ",
"                  ...      ..   ",
"                                ",
"                                "
};
