/* XPM */
static char *result[] = {
/* columns rows colors chars-per-pixel */
"32 32 9 1 ",
"  c #A08662",
". c #796755",
"X c #5A4E44",
"o c #423934",
"O c #A6FCDB",
"+ c #249FDE",
"@ c #40AE9E",
"# c #20D6C7",
"$ c white",
/* pixels */
"     .X.  X  .X  X.  X  .X.     ",
"   ..Xo...o..o....o..o...oX..   ",
"  .XXoooXoo..oXXXXo..ooXoooXX.  ",
" ..Xoooo..oX.ooXXoo.Xo..ooooX.. ",
"...ooXXo..XooooooooooX..oXXoo...",
"Xooo.oXo..oX.oX..Xo.Xo..oXo.oooX",
"Xoo.XoooooXXXoXXXXoXXXoooooX.ooX",
"oooooXXXOOoXoOoXXoOoXoOOXXXooooo",
"XXoooOOO++OOO+OOOO+OOO++OOOoooXX",
"ooooO+++@@+++@++++@+++@@+++Ooooo",
"oooO+@@@##@@@#@@@@#@@@##@@@+Oooo",
".ooO+@####################@+Ooo.",
".XoO+@####################@+OoX.",
".XoO+@####################@+OoX.",
"XooO+@####################@+OooX",
"ooO+@#####OO##O############@+Ooo",
"ooO+@######################@+Ooo",
"..oO+@####################@+Oo..",
"..oO+@####################@+Oo..",
"..oO+@####################@+Oo..",
"..oO+@####################@+Oo..",
".ooO+@####################@+Ooo.",
"ooO+@###+++##+#############@+Ooo",
".ooO+@####################@+Ooo.",
"..oO+@####################@+Oo..",
".XoO+@############O##OO###@+OoX.",
".XoO+@####################@+OoX.",
"XoOO+@@@@@#@@@@@@@@@##@@@@@+OOoX",
"ooooO+++++@++++++++++@+++++Ooooo",
"o.XooOOOOO+OOOOOOOOOO+OOOOOooX.o",
" ..XooooooOooooooooooOooooooX.. ",
"  XXoX..XXoXX......XXoXX..XoXX  "
};
