/* XPM */
static char *result[] = {
/* columns rows colors chars-per-pixel */
"64 128 17 1 ",
"  c #1A7A3E",
". c #DF3E23",
"X c #FA6A0A",
"o c #E86A73",
"O c #14A02E",
"+ c #59C135",
"@ c #F9A31B",
"# c #FFD541",
"$ c #FFFC40",
"% c #477D85",
"& c #588DBE",
"* c #F5A097",
"= c #FAD6B8",
"- c #849BE4",
"; c #B9BFFB",
": c #FEF3C0",
"> c None",
/* pixels */
">>>>>>>>>>>>>>>>>>>>>>>>>>>>>>>>>>>>>>>>>>>>>>>>>>>>>>>>>>>>>>>>",
">>>>>>>>>>>>>>>>>>>>>>>>>>>>>>>>>>>>>>>>>>>>>>>>>>>>>>>>>>>>>>>>",
">>>>>>>>>>>>>>>>>>>>>>>>>>>>>>>>>>>>>>>>>>>>>>>>>>>>>>>>>>>>>>>>",
">>>>>>>>>>>>>>>>>>>>>>>>>>>>>>>>>>>>>>>>>>>>>>>>>>>>>>>>>>>>>>>>",
">>>>>>>>>>>>>>>>>>>>>>>>>>>>>>>>>>>>>>>>>>>>>>>>>>>>>>>>>>>>>>>>",
">>>>>>>>>>>>>>>>>>>>>>>>>>>>>>>>>>>>>>>>>>>>>>>>>>>>>>>>>>>>>>>>",
">>>>>>>>>>>>>>>>>>>>>>>>>>>>>>>>>>>>>>>>>>>>>>>>>>>>>>>>>>>>>>>>",
">>>>>>>>>>>>>>>>>>>>>>>>>>>>>>>>>>>>>>>>>>>>>>>>>>>>>>>>>>>>>>>>",
">>>>>>>@@#@@>>>>>>>>>>>>>>>>=::==>>>>>>>>>>>>>>>--;;->>>>>>>>>>>",
">>>>>>>@@#@@>>>>>>>>>>>>>>>>=::==>>>>>>>>>>>>>>>--;;->>>>>>>>>>>",
">>>>>@@@@X@@@@>>>>>>>>>>>>===**===>>>>>>>>>>>>----&&--->>>>>>>>>",
">>>>>##XX.XX##++O>>>>>>>>>::*oo**:++OO>>>>>>>>;;&&%%&;;++OO>>>>>",
">>>>>##XX.XX##++O>>>>>>>>>::*oo**:++OO>>>>>>>>;;&&%%&;;++OO>>>>>",
">>>>O@@@@X@@@@  >>>>>>>>OO===**===  >>>>>>>>>O----&&---  >>>>>>>",
">>>>O@@@@X@@@@  >>>>>>>>OO===**===  >>>>>>>>>O----&&---  >>>>>>>",
">>>>>  @@>@@  >>>>>>>>>>>>  =>>== >>>>>>>>>>>>  -->>-  >>>>>>>>>",
">>>>>  @@>@@  >>>>>>>>>>>>  =>>== >>>>>>>>>>>>  -->>-  >>>>>>>>>",
">>>>>  OO>OO  >>>>>>>>>>>>  O>>OO >>>>>>>>>>>>  OO>>O  >>>>>>>>>",
">>>>>>>  O  >>>>>>>>>>>>>>>> OO  >>>>>>>>>>>>>>>  OO >>>>>>>>>>>",
">>>>>>>  O  >>>>>>>>>>>>>>>> OO  >>>>>>>>>>>>>>>  OO >>>>>>>>>>>",
">>>>>>>>>>>>>>>>>>>>>>>>>>>>>>>>>>>>>>>>>>>>>>>>>>>>>>>>>>>>>>>>",
">>>>>>>>>>>>>>>>>>>>>>>>>>>>>>>>>>>>>>>>>>>>>>>>>>>>>>>>>>>>>>>>",
">>>>>>>>>>>>>>>>>>>>>>>>>>>>>>>>>>>>>>>>>>>>>>>>>>>>>>>>>>>>>>>>",
">>>>>>>>>>>>>>>>>>>>>>>>>>>>>>>>>>>>>>>>>>>>>>>>>>>>>>>>>>>>>>>>",
">>>>>>>>>>>>>>>>>>>>>>>>>>>>>>>>>>>>>>>>>>>>>>>>>>>>>>>>>>>>>>>>",
">>>>>>>>>>>>>>>>>>>>>>>>>>>>>>>>>>>>>>>>>>>>>>>>>>>>>>>>>>>>>>>>",
">>>>>>>>>>>>>>>>>>>>>>>>>>>>>>>>>>>>>>>>>>>>>>>>>>>>>>>>>>>>>>>>",
">>>>>>>@@>@@>>>>>>>>>>>>>>>>*>>**>>>>>>>>>>>>>>>-->>->>>>>>>>>>>",
">>>>>>>@@>@@>>>>>>>>>>>>>>>>*>>**>>>>>>>>>>>>>>>-->>->>>>>>>>>>>",
">>>>>@@XX@XX@@>>>>>>>>>>>>**o**oo*>>>>>>>>>>>>--%%--%-->>>>>>>>>",
">>>>>@@XX#XX@@>>>>>>>>>>>>**o==oo*>>>>>>>>>>>>--%%;;%-->>>>>>>>>",
">>>>>@@XX#XX@@>>>>>>>>>>>>**o==oo*>>>>>>>>>>>>--%%;;%-->>>>>>>>>",
">>>>>@@##X##@@++O>>>>>>>>>**=oo==*++OO>>>>>>>>--;;%%;--++OO>>>>>",
">>>>>@@##X##@@++O>>>>>>>>>**=oo==*++OO>>>>>>>>--;;%%;--++OO>>>>>",
">>>>O++XX#XXOO  >>>>>>>>OO++o==ooO  >>>>>>>>>O++%%;;%OO  >>>>>>>",
">>>>O++XX#XXOO  >>>>>>>>OO++o==ooO  >>>>>>>>>O++%%;;%OO  >>>>>>>",
">>>>>  OO>OO  >>>>>>>>>>>>  O>>OO >>>>>>>>>>>>  OO>>O  >>>>>>>>>",
">>>>>  OO>OO  >>>>>>>>>>>>  O>>OO >>>>>>>>>>>>  OO>>O  >>>>>>>>>",
">>>>>  OO>OO  >>>>>>>>>>>>  O>>OO >>>>>>>>>>>>  OO>>O  >>>>>>>>>",
">>>>>>>  O  >>>>>>>>>>>>>>>> OO  >>>>>>>>>>>>>>>  OO >>>>>>>>>>>",
">>>>>>>  O  >>>>>>>>>>>>>>>> OO  >>>>>>>>>>>>>>>  OO >>>>>>>>>>>",
">>>>>>>>>>>>>>>>>>>>>>>>>>>>>>>>>>>>>>>>>>>>>>>>>>>>>>>>>>>>>>>>",
">>>>>>>>>>>>>>>>>>>>>>>>>>>>>>>>>>>>>>>>>>>>>>>>>>>>>>>>>>>>>>>>",
">>>>>>>>>>>>>>>>>>>>>>>>>>>>>>>>>>>>>>>>>>>>>>>>>>>>>>>>>>>>>>>>",
">>>>>>>>>>>>>>>>>>>>>>>>>>>>>>>>>>>>>>>>>>>>>>>>>>>>>>>>>>>>>>>>",
">>>>>>>>>>>>>>>>>>>>>>>>>>>>>>>>>>>>>>>>>>>>>>>>>>>>>>>>>>>>>>>>",
">>>>>>>>>>>>>>>>>>>>>>>>>>>>>>>>>>>>>>>>>>>>>>>>>>>>>>>>>>>>>>>>",
">>>>>>>>>>>>>>>>>>>>>>>>>>>>>>>>>>>>>>>>>>>>>>>>>>>>>>>>>>>>>>>>",
">>>>>>>>>$$$$$>>>>>>>>>>>>>>>=====>>>>>>>>>>>>>>>>;;;;;>>>>>>>>>",
">>>>>>>$$$$$##>>>>>>>>>>>>>>======>>>>>>>>>>>>>>;;;;;;;>>>>>>>>>",
">>>>>>>$$$$$##>>>>>>>>>>>>>>======>>>>>>>>>>>>>>;;;;;;;>>>>>>>>>",
">>>>>>>$$@@@##>>>>>>>>>>>>>>=****=>>>>>>>>>>>>>>;;---;;>>>>>>>>>",
">>>>>>>$$@@@##>>>>>>>>>>>>>>=****=>>>>>>>>>>>>>>;;---;;>>>>>>>>>",
">>>>>>>$$X@@##++O>>>>>>>>>>>=oo**=++OO>>>>>>>>>>;;%%-;;++OO>>>>>",
">>>>O++>>X@@OO  >>>>>>>>OO++>oo**O  >>>>>>>>>O++>>%%-OO  >>>>>>>",
">>>>O++>>X@@OO  >>>>>>>>OO++>oo**O  >>>>>>>>>O++>>%%-OO  >>>>>>>",
">>>>>  OO@OO  >>>>>>>>>>>>  O**OO >>>>>>>>>>>>  OO--O  >>>>>>>>>",
">>>>>  OO@OO  >>>>>>>>>>>>  O**OO >>>>>>>>>>>>  OO--O  >>>>>>>>>",
">>>>>  OO>OO  >>>>>>>>>>>>  O>>OO >>>>>>>>>>>>  OO>>O  >>>>>>>>>",
">>>>>  OO>OO  >>>>>>>>>>>>  O>>OO >>>>>>>>>>>>  OO>>O  >>>>>>>>>",
">>>>>>>  O  >>>>>>>>>>>>>>>> OO  >>>>>>>>>>>>>>>  OO >>>>>>>>>>>",
">>>>>>>>>>>>>>>>>>>>>>>>>>>>>>>>>>>>>>>>>>>>>>>>>>>>>>>>>>>>>>>>",
">>>>>>>>>>>>>>>>>>>>>>>>>>>>>>>>>>>>>>>>>>>>>>>>>>>>>>>>>>>>>>>>",
">>>>>>>>>>>>>>>>>>>>>>>>>>>>>>>>>>>>>>>>>>>>>>>>>>>>>>>>>>>>>>>>",
">>>>>>>>>>>>>>>>>>>>>>>>>>>>>>>>>>>>>>>>>>>>>>>>>>>>>>>>>>>>>>>>",
">>>>>>>>>>>>>>>>>>>>>>>>>>>>>>>>>>>>>>>>>>>>>>>>>>>>>>>>>>>>>>>>",
">>>>>>>>>>>>>>>>>>>>>>>>>>>>>>>>>>>>>>>>>>>>>>>>>>>>>>>>>>>>>>>>",
">>>>>>>>>>>>>>>>>>>>>>>>>>>>>>>>>>>>>>>>>>>>>>>>>>>>>>>>>>>>>>>>",
">>>>>>>>>>>>>>>>>>>>>>>>>>>>>>>>>>>>>>>>>>>>>>>>>>>>>>>>>>>>>>>>",
">>>>>>>>>>>>>>>>>>>>>>>>>>>>>>>>>>>>>>>>>>>>>>>>>>>>>>>>>>>>>>>>",
">>>>>>>>>$>>>>>>>>>>>>>>>>>>>::>>>>>>>>>>>>>>>>>>>-->>>>>>>>>>>>",
">>>>>>>>>$>>>>>>>>>>>>>>>>>>>::>>>>>>>>>>>>>>>>>>>-->>>>>>>>>>>>",
">>>>>>>@@#@@>>>>>>>>>>>>>>>>*==**>>>>>>>>>>>>>>>--;;->>>>>>>>>>>",
">>>>>$$##X##$$>>>>>>>>>>>>::=oo==:>>>>>>>>>>>>--;;%%;-->>>>>>>>>",
">>>>>$$##X##$$>>>>>>>>>>>>::=oo==:>>>>>>>>>>>>--;;%%;-->>>>>>>>>",
">>>>>>>@@#@@>>+++++>>>>>>>>>*==**>++++++>>>>>>>>--;;->>+++++>>>>",
">>>>>>>@@#@@>>+++++>>>>>>>>>*==**>++++++>>>>>>>>--;;->>+++++>>>>",
">>+++++>>$>>OO   >>>>>++++++>::>>O    >>>>>+++++>>>>>OO    >>>>>",
">>>>   OO>OO  >>>>>>>>>>    O>>OO >>>>>>>>>>>   OO>>O  >>>>>>>>>",
">>>>   OO>OO  >>>>>>>>>>    O>>OO >>>>>>>>>>>   OO>>O  >>>>>>>>>",
">>>>>>>  O  >>>>>>>>>>>>>>>> OO  >>>>>>>>>>>>>>>  OO >>>>>>>>>>>",
">>>>>>>  O  >>>>>>>>>>>>>>>> OO  >>>>>>>>>>>>>>>  OO >>>>>>>>>>>",
">>>>>>>>>>>>>>>>>>>>>>>>>>>>>>>>>>>>>>>>>>>>>>>>>>>>>>>>>>>>>>>>",
">>>>>>>>>>>>>>>>>>>>>>>>>>>>>>>>>>>>>>>>>>>>>>>>>>>>>>>>>>>>>>>>",
">>>>>>>>>>>>>>>>>>>>>>>>>>>>>>>>>>>>>>>>>>>>>>>>>>>>>>>>>>>>>>>>",
">>>>>>>>>>>>>>>>>>>>>>>>>>>>>>>>>>>>>>>>>>>>>>>>>>>>>>>>>>>>>>>>",
">>>>>>>>>>>>>>>>>>>>>>>>>>>>>>>>>>>>>>>>>>>>>>>>>>>>>>>>>>>>>>>>",
">>>>>>>>>>>>>>>>>>>>>>>>>>>>>>>>>>>>>>>>>>>>>>>>>>>>>>>>>>>>>>>>",
">>>>>>>>>>>>>>>>>>>>>>>>>>>>>>>>>>>>>>>>>>>>>>>>>>>>>>>>>>>>>>>>",
">>>>>>>>>>>>>>>>>>>>>>>>>>>>>>>>>>>>>>>>>>>>>>>>>>>>>>>>>>>>>>>>",
">>>>>>>>>>>>>>>>>>>>>>>>>>>>>>>>>>>>>>>>>>>>>>>>>>>>>>>>>>>>>>>>",
">>>>>>>>>>>>>>>>>>>>>>>>>>>>>>>>>>>>>>>>>>>>>>>>>>>>>>>>>>>>>>>>",
">>>>>>>>>>>>>>>>>>>>>>>>>>>>>>>>>>>>>>>>>>>>>>>>>>>>>>>>>>>>>>>>",
">>>>>>>>>>>>>>>>>>>>>>>>>>>>>>>>>>>>>>>>>>>>>>>>>>>>>>>>>>>>>>>>",
">>>>>>>>>@>>>>>>>>>>>>>>>>>>>**>>>>>>>>>>>>>>>>>>>-->>>>>>>>>>>>",
">>>>>>>>>@>>>>>>>>>>>>>>>>>>>**>>>>>>>>>>>>>>>>>>>-->>>>>>>>>>>>",
">>>>>>>@@#@@>>+++>>>>>>>>>>>*==**>++++>>>>>>>>>>--;;->>++++>>>>>",
">>>>+++>>@>>OOOO >>>>>>>++++>**>>OOO  >>>>>>>+++>>-->OOOO  >>>>>",
">>>>+++>>@>>OOOO >>>>>>>++++>**>>OOO  >>>>>>>+++>>-->OOOO  >>>>>",
">>>> OOOO>OO    >>>>>>>>  OOO>>OO   >>>>>>>>> OOOO>>O    >>>>>>>",
">>>> OOOO>OO    >>>>>>>>  OOO>>OO   >>>>>>>>> OOOO>>O    >>>>>>>",
">>>>>    O  >>>>>>>>>>>>>>   OO  >>>>>>>>>>>>>    OO >>>>>>>>>>>",
">>>>>    O  >>>>>>>>>>>>>>   OO  >>>>>>>>>>>>>    OO >>>>>>>>>>>",
">>>>>>>>>>>>>>>>>>>>>>>>>>>>>>>>>>>>>>>>>>>>>>>>>>>>>>>>>>>>>>>>",
">>>>>>>>>>>>>>>>>>>>>>>>>>>>>>>>>>>>>>>>>>>>>>>>>>>>>>>>>>>>>>>>",
">>>>>>>>>>>>>>>>>>>>>>>>>>>>>>>>>>>>>>>>>>>>>>>>>>>>>>>>>>>>>>>>",
">>>>>>>>>>>>>>>>>>>>>>>>>>>>>>>>>>>>>>>>>>>>>>>>>>>>>>>>>>>>>>>>",
">>>>>>>>>>>>>>>>>>>>>>>>>>>>>>>>>>>>>>>>>>>>>>>>>>>>>>>>>>>>>>>>",
">>>>>>>>>>>>>>>>>>>>>>>>>>>>>>>>>>>>>>>>>>>>>>>>>>>>>>>>>>>>>>>>",
">>>>>>>>>>>>>>>>>>>>>>>>>>>>>>>>>>>>>>>>>>>>>>>>>>>>>>>>>>>>>>>>",
">>>>>>>>>>>>>>>>>>>>>>>>>>>>>>>>>>>>>>>>>>>>>>>>>>>>>>>>>>>>>>>>",
">>>>>>>>>>>>>>>>>>>>>>>>>>>>>>>>>>>>>>>>>>>>>>>>>>>>>>>>>>>>>>>>",
">>>>>>>>>>>>>>>>>>>>>>>>>>>>>>>>>>>>>>>>>>>>>>>>>>>>>>>>>>>>>>>>",
">>>>>>>>>>>>>>>>>>>>>>>>>>>>>>>>>>>>>>>>>>>>>>>>>>>>>>>>>>>>>>>>",
">>>>>>>>>>>>>>>>>>>>>>>>>>>>>>>>>>>>>>>>>>>>>>>>>>>>>>>>>>>>>>>>",
">>>>>++>>>>>>>++>>>>>>>>>>>>>>>>>>++OO>>>>>>>>>>>>>>>>>>>>>>>>>>",
">>>>>OO++>>>>>OO>>>>>>>>OO++>>>>>O  >>>>>>>>>>>>>>>>>>>OO++O>>>>",
">>>>>OO++>>>>>OO>>>>>>>>OO++>>>>>O  >>>>>>>>>>>>>>>>>>>OO++O>>>>",
">>>>>    O>>OO  >>>>>>>>>>  O>>OO >>>>>>>>>OO+OO>>>>>OO    >>>>>",
">>>>>    O>>OO  >>>>>>>>>>  O>>OO >>>>>>>>>OO+OO>>>>>OO    >>>>>",
">>>>>>>   OO  >>>>>>>>>>>>  O>>OO >>>>>>>>>>>   OO>>O  >>>>>>>>>",
">>>>>>>>> >>  >>>>>>>>>>>>>> OO  >>>>>>>>>>>>>>>  OO >>>>>>>>>>>",
">>>>>>>>> >>  >>>>>>>>>>>>>> OO  >>>>>>>>>>>>>>>  OO >>>>>>>>>>>",
">>>>>>>>>>>>>>>>>>>>>>>>>>>>>>>>>>>>>>>>>>>>>>>>>>>>>>>>>>>>>>>>",
">>>>>>>>>>>>>>>>>>>>>>>>>>>>>>>>>>>>>>>>>>>>>>>>>>>>>>>>>>>>>>>>",
">>>>>>>>>>>>>>>>>>>>>>>>>>>>>>>>>>>>>>>>>>>>>>>>>>>>>>>>>>>>>>>>",
">>>>>>>>>>>>>>>>>>>>>>>>>>>>>>>>>>>>>>>>>>>>>>>>>>>>>>>>>>>>>>>>",
">>>>>>>>>>>>>>>>>>>>>>>>>>>>>>>>>>>>>>>>>>>>>>>>>>>>>>>>>>>>>>>>"
};
