/* XPM */
static char *cb3fdf7f32b54e08cb589574eca8225eFa132lu8mhrUeo0d[] = {
/* columns rows colors chars-per-pixel */
"32 32 134 2 ",
"   c None",
".  c #1C0A06",
"X  c #290D09",
"o  c #282102",
"O  c #2C2503",
"+  c #2F2804",
"@  c #332C05",
"#  c #3E280C",
"$  c #2E3C0E",
"%  c #373006",
"&  c #342E10",
"*  c #411810",
"=  c #552218",
"-  c #673E37",
";  c #384812",
":  c #3E5016",
">  c #465010",
",  c #495411",
"<  c #445618",
"1  c #4F5119",
"2  c #535F18",
"3  c #4F6216",
"4  c #5D641C",
"5  c #536C1C",
"6  c #5C781C",
"7  c #61711F",
"8  c #675C20",
"9  c #635929",
"0  c #597025",
"q  c #6B7623",
"w  c #544C4C",
"e  c #625E5C",
"r  c #70604C",
"t  c gray43",
"y  c #7D7371",
"u  c #9B7E2C",
"i  c #9B7F2C",
"p  c #B27629",
"a  c #B77C32",
"s  c #C76D32",
"d  c #846544",
"f  c #96694D",
"g  c #806656",
"h  c #D07C45",
"j  c #668521",
"k  c #648025",
"l  c #698728",
"z  c #6F9025",
"x  c #759728",
"c  c #75962E",
"v  c #7A9E2B",
"b  c #7B9E2B",
"n  c #728433",
"m  c #7D9242",
"M  c #858728",
"N  c #8C9C2A",
"B  c #869D3D",
"V  c #969B31",
"C  c #80A42E",
"Z  c #91A22D",
"A  c #86AB31",
"S  c #86AB32",
"D  c #97A930",
"F  c #8CB235",
"G  c #9DB033",
"H  c #9DB034",
"J  c #92B838",
"K  c #97BF3B",
"L  c #97BF3C",
"P  c #A8A72F",
"I  c #AEAE32",
"U  c #A2B637",
"Y  c #A8BD3A",
"T  c #B4B435",
"R  c #B4B535",
"E  c #B4B536",
"W  c #C4B234",
"Q  c #CAB937",
"!  c #E1BE39",
"~  c #9DC63F",
"^  c #BFC23C",
"/  c #D0C03A",
"(  c #858D40",
")  c #88904A",
"_  c #939F47",
"`  c #929C4E",
"'  c #8C945E",
"]  c #8CA440",
"[  c #9DB84A",
"{  c #9EAA54",
"}  c #B0A843",
"|  c #B3A354",
" . c #B9AA58",
".. c #A9B75B",
"X. c #9F9C60",
"o. c #9C9371",
"O. c #9A977B",
"+. c #A69E7C",
"@. c #9DA561",
"#. c #AEA264",
"$. c #A9A966",
"%. c #A9A66C",
"&. c #AEAC6E",
"*. c #A8B460",
"=. c #AFB069",
"-. c #B2BE6C",
";. c #B5A877",
":. c #B3B178",
">. c #BEBE7D",
",. c #DA8B58",
"<. c #C6A046",
"1. c #E8A276",
"2. c #BF9981",
"3. c #BF9A82",
"4. c #BFB283",
"5. c #BEBC84",
"6. c #B3B89C",
"7. c #FF8284",
"8. c #D7A388",
"9. c #CABD8E",
"0. c #DEB28B",
"q. c #F5AD8E",
"w. c #F1B18A",
"e. c #F5BA95",
"r. c #FFB29E",
"t. c #F0BA98",
"y. c #C2BAB9",
"u. c #FFBFA5",
"i. c #D4C79A",
"p. c #D4C89A",
"a. c #DFC89E",
"s. c #DED2A6",
"d. c #FAC3A0",
"f. c #FFCCAC",
/* pixels */
"                                                                ",
"                                                                ",
"                          < F J J <                             ",
"                        A L ~ ~ ~ ~ L                           ",
"                      A A ~ K J ~ ~ ~ J                         ",
"                    C A A A R R A G ^ ~ l                       ",
"                  : A A R Q G G R T G Q Y                       ",
"                  b A G I M u M b x u x / k                     ",
"                0 b A Q x s s s s s s u I Y                     ",
"                z A G I u h e.e.e.e.e.1.b R <                   ",
"                z b R b s w.2.f.f.f.2.e.M Q k                   ",
"                z b R A ,.q.r.f.f.f.u.r.M Q C                   ",
"                z z E H a w.f.f.e.f.f.f.b R <                   ",
"                ; z x Q V ,.d.f.7.f.f._ W D                     ",
"                  5 z N Q <. . .|  .} W D 5                     ",
"                      z z I P ! P ! P c ;                       ",
"                      Q P b I U z I Z Z       w y y.e           ",
"                    q A V Q Q S ] B R U           w y.6.;       ",
"                    S ~ 4.` S &.*.{ ` 4.o.            m '       ",
"                  < J &.i.4.9.>.-.-.s.p.s.          & - m m     ",
"                  S ..4.%.;.s.-.s.-.s.9.9.+.      $ 8 q z O.    ",
"                k [ 4.5.) ;.s.s.s.s.s.s.4.s.    1 #       y t   ",
"                F ..p.@.n ;.9.9.9.9.9.:.X.p.r 1 q ;       e t   ",
"              < S $.a.@.6 o + + + + + > n 0.f..             w   ",
"              k S f.t.6 6 o @ % @ O @ > 4 8.3.              w   ",
"              S S ( #.6 6 3 d 9 3 d 9 6 = X                     ",
"              S S j 6 6 6 6 t.#.6 t.#.6 2 7                     ",
"                  $ $ $ $ $ t.f $ t.f $ $ ;                     ",
"                            t.g   t.g                           ",
"                            p p   p p                           ",
"                            # #   # #                           ",
"                                                                "
};
