/* XPM */
static char *result[] = {
/* columns rows colors chars-per-pixel */
"21 21 8 1 ",
"  c #1A7A3E",
". c #DF3E23",
"X c #FA6A0A",
"o c #14A02E",
"O c #59C135",
"+ c #F9A31B",
"@ c #FFD541",
"# c None",
/* pixels */
"#####################",
"#####################",
"#####################",
"#####################",
"#####################",
"#####################",
"#####################",
"#####################",
"#######++@++#########",
"#######++@++#########",
"#####++++X++++#######",
"#####@@XX.XX@@OOo####",
"#####@@XX.XX@@OOo####",
"####o++++X++++  #####",
"####o++++X++++  #####",
"#####  ++#++  #######",
"#####  ++#++  #######",
"#####  oo#oo  #######",
"#######  o  #########",
"#######  o  #########",
"#####################"
};
